<svg xmlns="http://www.w3.org/2000/svg" viewBox="0 0 512 512">
  <rect width="512" height="512" rx="108" fill="#2d2926"/>
  <rect x="40" y="40" width="432" height="432" rx="88" fill="none" stroke="#d4b454" stroke-width="6" opacity="0.45"/>
  <text x="256" y="92" text-anchor="middle" fill="#e8e4dc" font-family="ui-monospace, monospace" font-size="34" letter-spacing="0.35em" opacity="0.55">REPUBLIC</text>
  <!-- trust · people · force · treasury -->
  <g fill="#eceae4">
    <path transform="translate(88, 128) scale(1.05)" d="M28 8c-14 22-14 52 0 72 14-20 14-50 0-72z"/>
    <circle cx="176" cy="152" r="18"/>
    <path d="M148 228c0-22 18-38 28-38s28 16 28 38"/>
    <g transform="translate(232, 138)">
      <rect x="8" y="52" width="48" height="10" rx="3"/>
      <rect x="44" y="28" width="10" height="38" rx="3"/>
      <rect x="8" y="28" width="22" height="10" rx="3"/>
    </g>
    <text x="356" y="210" text-anchor="middle" font-family="ui-monospace, monospace" font-size="88" font-weight="700">$</text>
  </g>
  <g fill="#d4b454" opacity="0.85">
    <rect x="88" y="188" width="56" height="44" rx="4"/>
    <rect x="168" y="188" width="56" height="44" rx="4"/>
    <rect x="248" y="188" width="56" height="44" rx="4"/>
    <rect x="328" y="188" width="56" height="44" rx="4"/>
  </g>
  <text x="256" y="410" text-anchor="middle" fill="#d4b454" font-family="ui-monospace, monospace" font-size="118" font-weight="600" letter-spacing="-3">2077</text>
</svg>
