<svg xmlns="http://www.w3.org/2000/svg" viewBox="0 0 512 512">
  <rect width="512" height="512" rx="96" fill="#2d2926"/>
  <rect y="108" width="512" height="404" fill="#9e978e"/>
  <rect width="512" height="108" fill="#2d2926"/>
  <g fill="#eceae4" opacity="0.92">
    <path transform="translate(72, 24) scale(1.1)" d="M28 8c-14 22-14 52 0 72 14-20 14-50 0-72z"/>
    <circle cx="176" cy="48" r="16"/>
    <path d="M148 92c0-18 18-30 28-30s28 12 28 30"/>
    <g transform="translate(232, 28)">
      <rect x="8" y="36" width="48" height="8" rx="2"/>
      <rect x="44" y="16" width="8" height="32" rx="2"/>
      <rect x="8" y="16" width="22" height="8" rx="2"/>
    </g>
    <text x="356" y="72" text-anchor="middle" font-family="ui-monospace, monospace" font-size="52" font-weight="700">$</text>
  </g>
  <ellipse cx="256" cy="300" rx="118" ry="138" fill="#3a3540"/>
  <ellipse cx="256" cy="268" rx="72" ry="82" fill="#4a4550"/>
  <rect x="196" y="340" width="120" height="110" rx="8" fill="#4a4550"/>
  <text x="256" y="468" text-anchor="middle" fill="#d4b454" font-family="ui-monospace, monospace" font-size="52" font-weight="700">2077</text>
</svg>
